<svg width="14" height="14" viewBox="0 0 14 14" fill="none" xmlns="http://www.w3.org/2000/svg">
<path fill-rule="evenodd" clip-rule="evenodd" d="M5.375 0C2.40647 0 0 2.40647 0 5.375C0 8.34353 2.40647 10.75 5.375 10.75C6.54342 10.75 7.62477 10.3772 8.50657 9.74401L12.375 13.6124L13.6124 12.375L9.74401 8.50657C10.3772 7.62477 10.75 6.54342 10.75 5.375C10.75 2.40647 8.34353 0 5.375 0ZM1.75 5.375C1.75 3.37297 3.37297 1.75 5.375 1.75C7.37703 1.75 9 3.37297 9 5.375C9 7.37703 7.37703 9 5.375 9C3.37297 9 1.75 7.37703 1.75 5.375Z" fill="black"/>
</svg>
