<svg width="20" height="20" viewBox="0 0 20 20" fill="none" xmlns="http://www.w3.org/2000/svg">
<path fill-rule="evenodd" clip-rule="evenodd" d="M7.67857 0.125C3.50685 0.125 0.125 3.50685 0.125 7.67857C0.125 11.8503 3.50685 15.2321 7.67857 15.2321C9.35859 15.2321 10.9105 14.6837 12.165 13.756L17.6786 19.2696L19.2696 17.6786L13.756 12.165C14.6837 10.9105 15.2321 9.35859 15.2321 7.67857C15.2321 3.50685 11.8503 0.125 7.67857 0.125ZM2.375 7.67857C2.375 4.74949 4.74949 2.375 7.67857 2.375C10.6077 2.375 12.9821 4.74949 12.9821 7.67857C12.9821 10.6077 10.6077 12.9821 7.67857 12.9821C4.74949 12.9821 2.375 10.6077 2.375 7.67857Z" fill="black"/>
</svg>
